<?xml version="1.0" encoding="UTF-8"?>
<svg version="1.1" xmlns="http://www.w3.org/2000/svg" width="971" height="1070">
<path d="M0 0 C4.52061708 1.32916366 8.53628079 3.20952333 12.72119141 5.32519531 C59.53225258 28.80570122 115.93672021 33.15152595 167.5625 36.6875 C168.44465179 36.74834778 169.32680359 36.80919556 170.23568726 36.87188721 C197.61405502 38.73115893 224.94445161 39.20471162 252.375 39.1875 C253.22105175 39.18738041 254.0671035 39.18726082 254.93879318 39.1871376 C282.00406261 39.18230547 308.98837971 38.85674445 336 37 C337.55012949 36.89712466 339.1002597 36.79426008 340.65039062 36.69140625 C395.27139743 32.99356859 453.33580143 27.13360113 502.4453125 1.25 C505 0 505 0 507 0 C505.31721567 5.97989432 502.39821653 11.23070522 499.5 16.6875 C498.96173584 17.7098877 498.42347168 18.73227539 497.86889648 19.78564453 C496.2499075 22.85921446 494.62529969 25.92976367 493 29 C491.74658111 31.37676167 490.49465314 33.75430184 489.24316406 36.13208008 C488.45279193 37.63355831 487.66177088 39.13469512 486.87011719 40.63549805 C482.756282 48.44113155 478.69465989 56.27388009 474.64086914 64.11083984 C474.12516357 65.1055127 473.60945801 66.10018555 473.078125 67.125 C472.32499023 68.58679688 472.32499023 68.58679688 471.55664062 70.078125 C470.49500612 72.07085426 469.38708427 74.03943977 468.24023438 75.984375 C467.68142578 76.93828125 467.12261719 77.8921875 466.546875 78.875 C466.03479492 79.71804687 465.52271484 80.56109375 464.99511719 81.4296875 C463.43960103 85.4474682 464.34455001 88.46040971 465.99291992 92.33227539 C466.40131104 93.07985107 466.80970215 93.82742676 467.23046875 94.59765625 C467.92922119 95.89956909 467.92922119 95.89956909 468.64208984 97.2277832 C469.1520752 98.16323975 469.66206055 99.09869629 470.1875 100.0625 C500.66801835 157.4080627 544.36168647 242.78303228 525 309 C517.0706363 332.81620941 498.09695733 346.28247129 476.54541016 357.24902344 C448.95603497 371 448.95603497 371 441 371 C448.45719914 395.73010389 456.59789538 420.23479381 464.75366211 444.74145508 C466.28594731 449.34704533 467.81251698 453.95446508 469.33374023 458.5637207 C477.03709002 481.89948862 484.84137355 505.16936554 493.61328125 528.12890625 C493.93103075 528.96146124 494.24878025 529.79401623 494.57615852 530.65180016 C505.15709495 558.26964448 517.31973172 585.21842107 530.0123291 611.92108154 C531.06012411 614.12655341 532.10595415 616.33294889 533.15136719 618.53955078 C537.93755757 628.64117374 542.73647021 638.7367096 547.54003906 648.83007812 C551.55162606 657.25977019 555.55697164 665.69242787 559.5625 674.125 C559.95553314 674.95231628 560.34856628 675.77963257 560.75350952 676.63201904 C566.88335079 689.53527757 573.00204266 702.44378664 579.11502075 715.3550415 C584.90063998 727.5744896 590.69718142 739.78871087 596.5 752 C603.60235137 766.94618107 610.6933014 781.89772315 617.77539062 796.85351562 C618.12071838 797.58206757 618.46604614 798.31061951 618.82183838 799.06124878 C619.50236929 800.50002046 620.18059456 801.9398852 620.85638428 803.38088989 C622.71395199 807.33330586 624.62269578 811.25219541 626.59277344 815.14990234 C627.01899994 816.00811081 627.44522644 816.86631927 627.8843689 817.75053406 C628.70911154 819.40934776 629.54774969 821.06134605 630.40200806 822.70515442 C633.14972593 828.28448223 633.14972593 828.28448223 632.39282227 831.90161133 C626.30589575 841.07201157 612.78289782 847.42567067 602.2734375 849.65625 C587.38877035 851.90685259 574.7246054 849.88408548 560.46484375 845.19140625 C558.08299713 844.43585572 555.70082435 843.6813328 553.31835938 842.92773438 C549.64965707 841.75649977 545.98400196 840.57772208 542.32397461 839.37963867 C526.67607335 834.27925892 511.85735848 830.87771296 495.42602539 829.61767578 C486.39514151 828.88236244 477.56813762 826.92316495 468.79296875 824.7109375 C467.12306885 824.29086426 467.12306885 824.29086426 465.41943359 823.86230469 C463.72681396 823.43546387 463.72681396 823.43546387 462 823 C460.83936035 822.7205957 459.6787207 822.44119141 458.48291016 822.15332031 C441.75477914 818.08897002 427.43704481 812.31557858 412.62939453 803.55029297 C408.89943457 801.35110581 405.10698017 799.27252002 401.3125 797.1875 C399.87839362 796.38894076 398.44482287 795.58941903 397.01171875 794.7890625 C392.44790089 792.24548202 387.87605944 789.7165076 383.30032349 787.19444275 C380.13547699 785.45003328 376.97346184 783.70090398 373.81738281 781.94067383 C368.42259578 778.93850835 363.03625482 775.96815502 357.46484375 773.30078125 C339.47928929 764.52815296 326.34955692 749.90057297 313.97241211 734.42236328 C312.13408866 732.16467727 310.22700242 730.01125941 308.25 727.875 C302.04322574 720.9553685 296.5554311 713.44338472 291 706 C290.46181641 705.28134766 289.92363281 704.56269531 289.36914062 703.82226562 C270.24666294 678.17811467 254.39659744 650.52208118 240 622 C239.49388184 620.99855957 238.98776367 619.99711914 238.46630859 618.96533203 C225.25991518 592.64000475 214.32780437 565.32133241 203.33883667 538.01727295 C173.20330461 460.83477967 173.20330461 460.83477967 110.96240234 409.82080078 C83.31670616 398.25762206 53.05841927 402.75555885 25 410 C27.84104365 400.08442078 32.73090859 391.09550717 37.32885742 381.90649414 C38.4277157 379.70521681 39.51698998 377.49939231 40.60546875 375.29296875 C40.94603806 374.62001266 41.28660736 373.94705658 41.63749695 373.25370789 C43.32136662 369.83157091 44 367.89835778 44 364 C42.98164063 363.55011719 41.96328125 363.10023438 40.9140625 362.63671875 C18.59642988 352.58032044 -5.14347558 339.8072024 -15.5859375 316.453125 C-20.15979675 304.34429532 -21.4129871 292.75838224 -21.375 279.875 C-21.37418427 278.82820068 -21.37418427 278.82820068 -21.37335205 277.76025391 C-21.3252381 264.2206033 -19.83602534 251.25475695 -17 238 C-16.80696289 237.06978027 -16.61392578 236.13956055 -16.41503906 235.18115234 C-8.42140067 197.62155255 6.71267324 161.59763834 23 127 C23.69657715 125.50629883 23.69657715 125.50629883 24.40722656 123.98242188 C34.32804431 102.71471169 34.32804431 102.71471169 40.44775391 93.04492188 C42.11969393 90.27746742 42.9995252 88.35325072 43.00390625 85.09375 C41.66704498 80.97392849 39.77199225 77.34959279 37.6875 73.5625 C36.77403882 71.8662626 35.86131054 70.16963038 34.94921875 68.47265625 C34.46759277 67.5820752 33.9859668 66.69149414 33.48974609 65.77392578 C30.94731951 61.03989582 28.47739828 56.26828278 26 51.5 C22.30543679 44.40938251 18.6001747 37.32458366 14.875 30.25 C14.47748535 29.49404541 14.0799707 28.73809082 13.67041016 27.95922852 C11.51093805 23.85570503 9.33962096 19.7588308 7.15625 15.66796875 C6.69105957 14.79301758 6.22586914 13.91806641 5.74658203 13.01660156 C4.8499243 11.33054029 3.94999275 9.64621491 3.04638672 7.96386719 C2.44721436 6.83513184 2.44721436 6.83513184 1.8359375 5.68359375 C1.48063965 5.01900146 1.1253418 4.35440918 0.75927734 3.66967773 C0 2 0 2 0 0 Z M59 122 C58.21109375 122.66644531 57.4221875 123.33289063 56.609375 124.01953125 C34.08867158 143.67203188 16.64066441 170.55900754 14 201 C12.41693277 227.23550941 19.63190724 254.69073925 37.0625 274.87890625 C37.701875 275.57886719 38.34125 276.27882813 39 277 C39.5775 277.66902344 40.155 278.33804688 40.75 279.02734375 C56.93143127 296.63859977 83.21583032 306.00437435 106.61962891 307.12548828 C142.65825216 308.33304612 174.72945403 297.19901065 206.04907227 279.99633789 C208 279 208 279 211 278 C211.26844727 278.71502686 211.53689453 279.43005371 211.81347656 280.16674805 C213.01794429 283.04284845 214.41854958 285.63668369 215.984375 288.33203125 C216.5832251 289.36666504 217.1820752 290.40129883 217.79907227 291.46728516 C218.76478149 293.1231665 218.76478149 293.1231665 219.75 294.8125 C220.42070353 295.96651093 221.09119203 297.12064686 221.76147461 298.27490234 C223.14710566 300.65998572 224.53476751 303.04387416 225.92333984 305.42724609 C227.92587218 308.8677217 229.91116056 312.31797079 231.89453125 315.76953125 C233.11701053 317.88812296 234.33965962 320.00661669 235.5625 322.125 C236.12098633 323.10057861 236.67947266 324.07615723 237.25488281 325.08129883 C242.83692961 335.84144607 242.83692961 335.84144607 252 343 C255.50260082 343.15483439 255.50260082 343.15483439 259 342 C263.98184325 336.95106122 267.06640222 330.81240374 270.4375 324.625 C271.67002846 322.39220886 272.90445793 320.16046622 274.140625 317.9296875 C274.77291016 316.78854492 275.40519531 315.64740234 276.05664062 314.47167969 C279.19898698 308.85809109 282.43727301 303.30163261 285.6875 297.75 C286.27523193 296.74533691 286.86296387 295.74067383 287.46850586 294.70556641 C289.95830595 290.45763878 292.46207938 286.2193927 295 282 C295.94746094 282.48243164 295.94746094 282.48243164 296.9140625 282.97460938 C318.17135345 293.71046021 339.45928563 301.99948068 363 306 C364.08796875 306.19078125 365.1759375 306.3815625 366.296875 306.578125 C393.52371277 309.67991664 425.47087762 305.13920865 447.63720703 287.71289062 C451.28423902 284.65956152 454.65506131 281.37912055 458 278 C458.72832031 277.29359375 459.45664062 276.5871875 460.20703125 275.859375 C471.91540892 263.75840873 477.46350531 247.87077359 482 232 C482.28875 231.00742187 482.5775 230.01484375 482.875 228.9921875 C488.91422273 202.90610044 480.57832707 175.2356497 467 153 C461.67100939 145.08696953 455.53344589 137.93514057 449 131 C448.40058594 130.33613281 447.80117188 129.67226562 447.18359375 128.98828125 C426.7385413 107.21849538 396.96081454 96.41064493 367.59228516 94.87402344 C324.08145783 93.51350281 285.71641492 112.95099373 253.4765625 140.91796875 C251 143 251 143 249 144 C248.37996094 143.48953125 247.75992188 142.9790625 247.12109375 142.453125 C244.66213914 140.4344199 242.19581554 138.42499041 239.72851562 136.41650391 C237.95025122 134.9592313 236.18597943 133.48608758 234.421875 132.01171875 C226.40932547 125.37429167 218.3119806 119.72481991 209 115 C207.82775879 114.40058594 207.82775879 114.40058594 206.63183594 113.7890625 C159.1843429 89.76501539 102.02132898 85.61493985 59 122 Z " fill="#0057FF" transform="translate(155,97)"/>
<path d="M0 0 C1.26457031 1.14082031 1.26457031 1.14082031 2.5546875 2.3046875 C16.33107848 15.39440479 24.48367618 31.79831676 33.12841797 48.4440918 C34.36522026 50.81404079 35.63878591 53.14954104 36.93798828 55.48754883 C42.2351829 65.02482534 46.44253249 74.87099761 50.49578857 84.9927063 C51.65450808 87.88618566 52.82330778 90.77541907 53.99462891 93.66381836 C55.58393811 97.58500873 57.1696909 101.50760145 58.75195312 105.43164062 C74.43355939 144.30346131 90.33929337 183.22127583 111.53027344 219.47802734 C112.86250719 221.76406964 114.17360782 224.06047132 115.4765625 226.36328125 C128.85697825 249.82987167 144.53319459 272.38546641 162 293 C162.9040038 294.07782487 163.80762892 295.15596742 164.7109375 296.234375 C170.04033393 302.58041969 175.44960356 308.8452624 181 315 C180.67 315.66 180.34 316.32 180 317 C177.39681791 317.5414642 174.86490186 317.95181348 172.23339844 318.296875 C171.41842392 318.41099731 170.6034494 318.52511963 169.76377869 318.6427002 C167.04679688 319.0207494 164.32820975 319.38553431 161.609375 319.75 C159.71045854 320.01072112 157.81163567 320.27212469 155.91290283 320.53417969 C151.9119206 321.08442216 147.91016561 321.62851399 143.90771484 322.16796875 C138.83824346 322.85140726 133.77043148 323.5462821 128.70312119 324.24554443 C124.76700837 324.78793748 120.83026865 325.32566236 116.89331818 325.86193848 C115.02934488 326.11605784 113.16550359 326.37114781 111.30181122 326.62731934 C76.30771884 331.4232029 76.30771884 331.4232029 60 331.25 C59.00419922 331.24250732 58.00839844 331.23501465 56.98242188 331.22729492 C-1.24699035 330.40006756 -52.94629892 307.62418878 -95 268 C-96.17369141 266.90751953 -96.17369141 266.90751953 -97.37109375 265.79296875 C-103.98101666 259.4422585 -109.51242188 252.31604524 -115 245 C-115.97646484 243.69869141 -115.97646484 243.69869141 -116.97265625 242.37109375 C-146.28833682 201.83665616 -151.27234588 152.22091072 -143.96484375 103.82421875 C-143.56801358 101.3814799 -143.16321473 98.94002067 -142.75 96.5 C-142.56993408 95.42403564 -142.38986816 94.34807129 -142.2043457 93.23950195 C-138.19344638 70.7689199 -131.92022174 48.68746666 -126.02172852 26.65332031 C-124.99723891 22.82405839 -123.98552311 18.99153078 -122.97624683 15.15823555 C-122.18781133 12.17275582 -121.39032178 9.18975049 -120.59027672 6.20736313 C-120.21251042 4.79288723 -119.83814077 3.37749942 -119.46732521 1.96118546 C-118.9537516 0.00298459 -118.42605961 -1.95149715 -117.89770508 -3.90576172 C-117.60269608 -5.01394257 -117.30768707 -6.12212341 -117.0037384 -7.2638855 C-116.00639332 -9.9825723 -115.2552819 -11.24109495 -113 -13 C-111.06152344 -13.84375 -111.06152344 -13.84375 -108.859375 -14.5 C-108.04315674 -14.74596924 -107.22693848 -14.99193848 -106.38598633 -15.24536133 C-105.51611084 -15.49439209 -104.64623535 -15.74342285 -103.75 -16 C-102.85627686 -16.26127686 -101.96255371 -16.52255371 -101.04174805 -16.79174805 C-93.42963121 -18.97100972 -85.81672308 -20.70845759 -78 -22 C-77.23300781 -22.13148438 -76.46601563 -22.26296875 -75.67578125 -22.3984375 C-47.8708842 -26.31760394 -20.91097478 -18.91350853 0 0 Z " fill="#0057FF" transform="translate(287,538)"/>
<path d="M0 0 C-1.6106734 1.07378227 -3.23162083 2.13554812 -4.90234375 3.11328125 C-10.66335785 6.5079671 -14.49408977 9.56594061 -16.4375 16.1875 C-17.5926993 22.5095907 -16.04604772 27.92015974 -12.515625 33.234375 C-6.71709213 40.30964905 0.95692241 45.28879172 10 47 C20.60595001 47.94634157 28.09108593 46.98209426 36.875 41.0625 C41.3920613 36.67829344 42.63370227 32.72828189 43.0546875 26.55078125 C42.84500282 16.77048848 35.64762944 10.38172427 29 4 C43.52919462 6.07559923 56.07526583 14.64456466 67 24 C67.74765625 24.63421875 68.4953125 25.2684375 69.265625 25.921875 C81.15595659 36.87596 88.87529431 52.60219011 90.22265625 68.65234375 C90.6629852 81.99622546 86.41114109 94.23858073 77.625 104.25 C76.10024221 105.84962315 74.55991415 107.43464113 73 109 C72.45730469 109.56589844 71.91460938 110.13179688 71.35546875 110.71484375 C60.48085136 121.09390895 42.74181619 126.43677446 28 127 C26.43378906 127.05994141 26.43378906 127.05994141 24.8359375 127.12109375 C0.13673146 127.58659985 -24.19408297 120.41173457 -43 104 C-43.65871094 103.48308594 -44.31742187 102.96617187 -44.99609375 102.43359375 C-54.23537325 94.95932281 -60.89808227 85.0993068 -65 74 C-65.31839844 73.15179688 -65.63679688 72.30359375 -65.96484375 71.4296875 C-70.32978058 57.9526936 -68.90359546 43.80719091 -62.609375 31.21875 C-54.0992798 16.34847839 -40.62181719 6.88364134 -24.16259766 2.16186523 C-16.00460988 0.0124026 -8.451933 -0.47542123 0 0 Z " fill="#0057FF" transform="translate(514,235)"/>
<path d="M0 0 C18.01415109 -1.11046137 36.17323474 4.2332499 50.07910156 15.98022461 C55.57830972 20.94184435 59.85249624 26.2658059 63 33 C63.39832031 33.85078125 63.79664063 34.7015625 64.20703125 35.578125 C69.64278748 48.71613653 68.91317796 62.80102152 63.9375 75.9375 C54.66623063 96.67586569 37.30546949 111.45907064 16.46484375 119.7578125 C-8.37256793 128.66231861 -34.70123464 130.40222813 -59 119 C-72.85633918 112.0515726 -83.13835278 101.61632244 -88.4375 86.9375 C-92.56607959 71.90661067 -90.30385302 57.33221839 -83.4375 43.5 C-72.65013803 24.97270581 -53.75278854 9.87343072 -33 4 C-30.79296875 4.44140625 -30.79296875 4.44140625 -29 5 C-29.77923828 5.51046875 -29.77923828 5.51046875 -30.57421875 6.03125 C-36.70375915 10.29133723 -40.62238337 14.86715011 -43 22 C-43.53385142 27.96476294 -43.55270149 32.95745595 -40 38 C-34.75920672 43.64286472 -29.22199873 46.61357978 -21.54296875 47.31640625 C-9.89042575 47.68239291 -0.97615005 45.44701366 8.0546875 37.9375 C12.88335677 33.12822297 16.10703781 27.58542574 16.25 20.6875 C16.16798208 15.06471587 14.40329336 11.68395203 10.8125 7.375 C7.45594573 4.54057639 3.99392293 2.77397569 0 1 C0 0.67 0 0.34 0 0 Z " fill="#0057FF" transform="translate(294,235)"/>
<path d="M0 0 C5.35430434 4.74586067 10.1690986 9.82277036 14.83984375 15.23828125 C18.41738014 19.35720352 22.09222332 23.38989224 25.75 27.4375 C24.48926126 30.71506052 23.09670898 33.80894083 21.421875 36.89453125 C20.9585376 37.74829346 20.4952002 38.60205566 20.01782227 39.48168945 C19.51694092 40.39523193 19.01605957 41.30877441 18.5 42.25 C17.97784912 43.20543701 17.45569824 44.16087402 16.91772461 45.14526367 C11.74128426 54.55718153 6.32877778 63.82659139 0.87890625 73.08203125 C-1.90894964 77.82505113 -4.60683743 82.61251327 -7.25 87.4375 C-11.16558121 86.13230626 -11.50103008 84.73057187 -13.48046875 81.1640625 C-14.11138428 80.04128906 -14.7422998 78.91851562 -15.39233398 77.76171875 C-16.07409944 76.52866986 -16.75582038 75.29559635 -17.4375 74.0625 C-18.86521719 71.51044253 -20.29959498 68.96215441 -21.734375 66.4140625 C-22.10211533 65.75915833 -22.46985565 65.10425415 -22.84873962 64.42950439 C-25.44599929 59.81839608 -28.11190295 55.25289366 -30.828125 50.7109375 C-31.1962178 50.09505768 -31.56431061 49.47917786 -31.94355774 48.84463501 C-33.37431217 46.45454009 -34.80737622 44.06592207 -36.24911499 41.68243408 C-37.24184537 40.0407943 -38.22848209 38.39547424 -39.21484375 36.75 C-39.7780835 35.81800781 -40.34132324 34.88601563 -40.92163086 33.92578125 C-42.11670177 31.68719226 -42.94344907 29.94951456 -43.25 27.4375 C-41.80078125 25.31640625 -41.80078125 25.31640625 -39.5625 23 C-38.73878906 22.13117188 -37.91507812 21.26234375 -37.06640625 20.3671875 C-36.61410645 19.89893555 -36.16180664 19.43068359 -35.69580078 18.94824219 C-33.6176788 16.77677666 -31.59590012 14.55512993 -29.56713867 12.33764648 C-12.69353457 -6.10266085 -12.69353457 -6.10266085 0 0 Z " fill="#0057FF" transform="translate(417.25,342.5625)"/>
</svg>
